<svg id="visual" viewBox="0 0 900 600" width="900" height="600" xmlns="http://www.w3.org/2000/svg" xmlns:xlink="http://www.w3.org/1999/xlink" version="1.1"><rect x="0" y="0" width="900" height="600" fill="#F7FAFC"></rect><defs><linearGradient id="grad1_0" x1="33.3%" y1="0%" x2="100%" y2="100%"><stop offset="20%" stop-color="#f7fafc" stop-opacity="1"></stop><stop offset="80%" stop-color="#f7fafc" stop-opacity="1"></stop></linearGradient></defs><defs><linearGradient id="grad2_0" x1="0%" y1="0%" x2="66.7%" y2="100%"><stop offset="20%" stop-color="#f7fafc" stop-opacity="1"></stop><stop offset="80%" stop-color="#f7fafc" stop-opacity="1"></stop></linearGradient></defs><g transform="translate(900, 0)"><path d="M0 378.6C-23.4 330.7 -46.8 282.8 -71.7 267.6C-96.6 252.3 -122.9 269.7 -161.5 279.7C-200.1 289.8 -250.9 292.5 -267.7 267.7C-284.5 242.9 -267.4 190.5 -272.8 157.5C-278.2 124.5 -306.1 110.8 -327.4 87.7C-348.8 64.7 -363.7 32.4 -378.6 0L0 0Z" fill="#38B2AC"></path></g><g transform="translate(0, 600)"><path d="M0 -378.6C35.8 -382.1 71.6 -385.7 98 -365.7C124.4 -345.7 141.3 -302.1 158 -273.7C174.7 -245.2 191 -231.7 222 -222C253.1 -212.3 298.8 -206.3 319.6 -184.5C340.4 -162.7 336.3 -125 341.9 -91.6C347.6 -58.2 363.1 -29.1 378.6 0L0 0Z" fill="#38B2AC"></path></g></svg>