<svg id="visual" viewBox="0 0 900 600" width="900" height="600" xmlns="http://www.w3.org/2000/svg" xmlns:xlink="http://www.w3.org/1999/xlink" version="1.1"><rect x="0" y="0" width="900" height="600" fill="#001220"></rect><defs><linearGradient id="grad1_0" x1="33.3%" y1="0%" x2="100%" y2="100%"><stop offset="20%" stop-color="#001220" stop-opacity="1"></stop><stop offset="80%" stop-color="#001220" stop-opacity="1"></stop></linearGradient></defs><defs><linearGradient id="grad2_0" x1="0%" y1="0%" x2="66.7%" y2="100%"><stop offset="20%" stop-color="#001220" stop-opacity="1"></stop><stop offset="80%" stop-color="#001220" stop-opacity="1"></stop></linearGradient></defs><g transform="translate(900, 0)"><path d="M0 378.6C-36.2 377.3 -72.4 375.9 -92.9 346.8C-113.5 317.6 -118.4 260.6 -134.5 233C-150.6 205.3 -177.8 207 -197.3 197.3C-216.7 187.5 -228.3 166.3 -259.8 150C-291.3 133.7 -342.6 122.2 -365.7 98C-388.8 73.8 -383.7 36.9 -378.6 0L0 0Z" fill="#38B2AC"></path></g><g transform="translate(0, 600)"><path d="M0 -378.6C26.5 -341.6 53 -304.6 76.4 -284.9C99.7 -265.3 119.8 -262.8 152 -263.3C184.2 -263.7 228.5 -267 248.9 -248.9C269.3 -230.8 265.7 -191.4 284.9 -164.5C304.2 -137.6 346.3 -123.3 365.7 -98C385.1 -72.7 381.8 -36.3 378.6 0L0 0Z" fill="#38B2AC"></path></g></svg>